<?xml version="1.0" encoding="iso-8859-1"?>
<!-- Generator: Adobe Illustrator 16.0.0, SVG Export Plug-In . SVG Version: 6.00 Build 0)  -->
<!DOCTYPE svg PUBLIC "-//W3C//DTD SVG 1.1//EN" "http://www.w3.org/Graphics/SVG/1.1/DTD/svg11.dtd">
<svg xmlns="http://www.w3.org/2000/svg" xmlns:xlink="http://www.w3.org/1999/xlink" version="1.1" id="Capa_1" x="0px" y="0px" width="512px" height="512px" viewBox="0 0 497.25 497.25" style="enable-background:new 0 0 497.25 497.25;" xml:space="preserve">
<g>
	<g>
		<polygon points="316.557,162.562 294.104,19.125 261.678,19.125 269.242,162.562   " fill="#FFFFFF"/>
		<polygon points="150.438,478.125 230.437,478.125 242.161,239.062 187.846,239.062   " fill="#FFFFFF"/>
		<polygon points="285.871,478.125 365.938,478.125 328.529,239.062 273.268,239.062   " fill="#FFFFFF"/>
		<polygon points="245.909,162.562 252.938,19.125 222.271,19.125 199.818,162.562   " fill="#FFFFFF"/>
		<polygon points="61.047,229.5 59.087,239.062 53.187,267.75 138.656,267.75 144.547,239.062 146.507,229.5 148.477,219.938     190.839,219.938 243.098,219.938 272.264,219.938 325.536,219.938 371.398,219.938 373.616,229.5 375.845,239.062 382.5,267.75     464.977,267.75 458.321,239.062 456.093,229.5 453.875,219.938 497.25,219.938 497.25,181.688 319.55,181.688 270.246,181.688     244.972,181.688 196.825,181.688 0,181.688 0,219.938 63.007,219.938   " fill="#FFFFFF"/>
	</g>
</g>
<g>
</g>
<g>
</g>
<g>
</g>
<g>
</g>
<g>
</g>
<g>
</g>
<g>
</g>
<g>
</g>
<g>
</g>
<g>
</g>
<g>
</g>
<g>
</g>
<g>
</g>
<g>
</g>
<g>
</g>
</svg>
