<?xml version="1.0" encoding="iso-8859-1"?>
<!-- Generator: Adobe Illustrator 19.1.0, SVG Export Plug-In . SVG Version: 6.00 Build 0)  -->
<svg xmlns="http://www.w3.org/2000/svg" xmlns:xlink="http://www.w3.org/1999/xlink" version="1.1" id="Capa_1" x="0px" y="0px" viewBox="0 0 482 482" style="enable-background:new 0 0 482 482;" xml:space="preserve" width="512px" height="512px">
<g>
	<g>
		<path d="M440.05,199c-19,0-35,12.6-40.2,29.9h-46.4c0.4,4,0.6,8,0.6,12.1c0,5.7-0.4,11.4-1.3,16.9h48.8    c6.5,14.8,21.3,25.1,38.4,25.1c23.2,0,42-18.8,42-42S463.25,199,440.05,199z" fill="#FFFFFF"/>
		<path d="M81.45,257.9h47.8c-0.8-5.5-1.3-11.2-1.3-16.9c0-4.1,0.2-8.1,0.6-12.1h-47.1c-5.9-16-21.3-27.5-39.4-27.5    c-23.2,0-42,18.8-42,42s18.8,42,42,42C60.15,285.4,75.55,274,81.45,257.9z" fill="#FFFFFF"/>
		<path d="M226.55,81.4v47.4c4.7-0.6,9.6-0.9,14.5-0.9s9.7,0.3,14.5,0.9V81.4c16-5.9,27.5-21.3,27.5-39.4c0-23.2-18.8-42-42-42    s-42,18.8-42,42C199.05,60.1,210.55,75.5,226.55,81.4z" fill="#FFFFFF"/>
		<path d="M330.65,171.9l33.6-33.6c15.5,7.1,34.4,4.3,47.2-8.4c16.4-16.4,16.4-42.9,0-59.3c-16.4-16.4-42.9-16.4-59.3,0    c-12.8,12.8-15.6,31.7-8.4,47.2l-21.4,21.4l0,0l-12.2,12.2C317.75,157.4,324.65,164.3,330.65,171.9z" fill="#FFFFFF"/>
		<path d="M100.35,142.2c6.3,0,12.3-1.4,17.6-3.9l33.6,33.6c5.9-7.7,12.8-14.6,20.5-20.5l-33.6-33.6c2.5-5.4,3.9-11.3,3.9-17.6    c0-23.2-18.8-42-42-42s-42,18.8-42,42C58.35,123.4,77.15,142.2,100.35,142.2z" fill="#FFFFFF"/>
		<path d="M151.45,310.1l-33.6,33.6c-5.4-2.5-11.3-3.9-17.6-3.9c-23.2,0-42,18.8-42,42s18.8,42,42,42s42-18.8,42-42    c0-6.3-1.4-12.3-3.9-17.6l33.6-33.6C164.35,324.6,157.45,317.7,151.45,310.1z" fill="#FFFFFF"/>
		<path d="M381.75,339.8c-6.3,0-12.3,1.4-17.6,3.9l-33.6-33.6c-5.9,7.7-12.8,14.6-20.5,20.5l33.6,33.6c-2.5,5.4-3.9,11.3-3.9,17.6    c0,23.2,18.8,42,42,42s42-18.8,42-42C423.75,358.6,404.95,339.8,381.75,339.8z" fill="#FFFFFF"/>
		<path d="M255.55,400.6v-29.3v-18.2c-4.7,0.6-9.6,0.9-14.5,0.9s-9.7-0.3-14.5-0.9v18.2v29.3c-16,5.9-27.5,21.3-27.5,39.4    c0,23.2,18.8,42,42,42s42-18.8,42-42C283.05,421.9,271.55,406.5,255.55,400.6z" fill="#FFFFFF"/>
		<path d="M241.05,150.2c-50.2,0-90.8,40.7-90.8,90.8c0,50.2,40.7,90.8,90.8,90.8s90.8-40.7,90.8-90.8    C331.85,190.8,291.25,150.2,241.05,150.2z M267.15,276.8c-4,4.8-9.1,8.1-15.1,9.7c-2.6,0.7-3.8,2.1-3.7,4.8c0.1,2.7,0,5.4,0,8    c0,2.4-1.2,3.7-3.6,3.7c-2.9,0.1-5.8,0.1-8.7,0c-2.5,0-3.7-1.5-3.7-4c0-2,0-3.9-0.1-5.9c0-4.3-0.2-4.5-4.3-5.2    c-5.3-0.8-10.5-2.1-15.4-4.4c-3.8-1.9-4.2-2.8-3.1-6.8c0.8-3,1.6-6,2.6-8.9c1.1-3.4,2-3.9,5.2-2.2c5.4,2.8,11.1,4.4,17.1,5.1    c3.9,0.5,7.6,0.1,11.2-1.5c6.7-2.9,7.7-10.7,2.1-15.3c-1.9-1.6-4.1-2.7-6.4-3.7c-5.8-2.6-12-4.5-17.5-7.8    c-9-5.4-14.7-12.7-14-23.7c0.8-12.3,7.7-20,19-24.2c4.7-1.7,4.7-1.6,4.7-6.5c0-1.7,0-3.3,0-5c0.1-3.7,0.7-4.3,4.4-4.4    c1.1,0,2.3,0,3.4,0c7.8,0,7.8,0,7.8,7.8c0,5.5,0,5.5,5.5,6.4c4.2,0.7,8.2,1.9,12.1,3.6c2.1,0.9,3,2.4,2.3,4.7    c-1,3.4-1.9,6.8-3,10.1c-1,3.2-2,3.6-5.1,2.1c-6.1-2.9-12.5-4.2-19.2-3.8c-1.8,0.1-3.5,0.3-5.1,1c-5.8,2.5-6.8,9-1.8,12.9    c2.5,2,5.4,3.5,8.3,4.7c5.1,2.1,10.3,4.2,15.2,6.9C273.85,243.9,278.05,263.5,267.15,276.8z" fill="#FFFFFF"/>
	</g>
</g>
<g>
</g>
<g>
</g>
<g>
</g>
<g>
</g>
<g>
</g>
<g>
</g>
<g>
</g>
<g>
</g>
<g>
</g>
<g>
</g>
<g>
</g>
<g>
</g>
<g>
</g>
<g>
</g>
<g>
</g>
</svg>
